# xmcd
#
# Track frame offsets: 
#        150
#        17410
#        32810
#        50632
#        96550
#        121718
#        140222
#        162426
#        195159
#        215662
#
# Disc length: 3062 seconds
#
# Revision: 0
# Processed by: cddbd v1.5.1PL0 Copyright (c) Steve Scherf et al.
# Submitted via: ExactAudioCopy v0.95a3
#
DISCID=8c0bf40a
DTITLE=Engerling - Engerling
DYEAR=1979
DGENRE=Blues
TTITLE0=Sechs Tage auf dem Rad
TTITLE1=Schwester Bessies Boogie
TTITLE2=Gleichschritt
TTITLE3=Moll - Blues
TTITLE4=Die dünne Haut
TTITLE5=Blues vom Roten Hahn
TTITLE6=mama Wilson
TTITLE7=Montgolfière
TTITLE8=Der Zug oder die weiße Ziege
TTITLE9=Da hilft kein jammern
EXTD=
EXTT0=
EXTT1=
EXTT2=
EXTT3=
EXTT4=
EXTT5=
EXTT6=
EXTT7=
EXTT8=
EXTT9=
PLAYORDER=
